# xmcd
#
# Track frame offsets:
#	150
#	11318
#	20265
#	39661
#	50211
#	60771
#	72579
#	83973
#	94676
#	103629
#	116674
#	128227
#	138559
#	148805
#	160168
#	173779
#	181143
#	191837
#	202582
#	213557
#	224832
#	236520
#	247877
#	259112
#	271947
#
# Disc length: 3781 seconds
#
# Revision: 0
# Processed by: cddbd v1.5.1PL2 Copyright (c) Steve Scherf et al.
# Submitted via: audiograbber 1.82.02
#
DISCID=6c0ec319
DTITLE=Various Artist - Rarest Of The Rare, Vol 11
DYEAR=1900
DGENRE=R&B
TTITLE0=Tramps - No Hope
TTITLE1=Cymbals - My Darling
TTITLE2=Torpedoes - My Little Angel
TTITLE3=Gary Micks - Johnny Dollar
TTITLE4=Calendars (Roberta Watson and The) - Dear Donnie
TTITLE5=Continentals - Don't Leave Me
TTITLE6=Ballards (Billy Brown and The) - Why Baby Why
TTITLE7=Perfections - No More Love For You
TTITLE8=Rays (Rich and The) - My Heart
TTITLE9=Darryl Rhoades - Burgers From Heaven
TTITLE10=Radiants (Little Jan and The) - Heart And Soul
TTITLE11=Ron Bennet - Dingle Dangle Doll
TTITLE12=Mel-O-Dees (Leon Peterson and The) - This Creation
TTITLE13=Jack-O-Lanterns - The Great Pumpkin
TTITLE14=Vel-Vettes - I'd Like To Know
TTITLE15=Good Guys - Dom De-Dom
TTITLE16=Avalons - Picture Of You
TTITLE17=Charlie Allen - Sweetie Pie
TTITLE18=Montereys - Darlin'
TTITLE19=Rays (Rich and The - The Way You Look Tonight
TTITLE20=Kents - Go Astray
TTITLE21=Deltas (Bobby Dobson and The) - Diamonds And Pearls
TTITLE22=Anna Raye - Will You Be There
TTITLE23=Kents - Your Graduation
TTITLE24=Beau-Jives - Mr. Sandman
EXTD=
EXTT0=
EXTT1=
EXTT2=
EXTT3=
EXTT4=
EXTT5=
EXTT6=
EXTT7=
EXTT8=
EXTT9=
EXTT10=
EXTT11=
EXTT12=
EXTT13=
EXTT14=
EXTT15=
EXTT16=
EXTT17=
EXTT18=
EXTT19=
EXTT20=
EXTT21=
EXTT22=
EXTT23=
EXTT24=
PLAYORDER=
